<svg width="129" height="52" viewBox="0 0 129 52" fill="none" xmlns="http://www.w3.org/2000/svg">
<rect width="17.3171" height="32.117" transform="matrix(-0.707107 0.707107 0.707107 0.707107 40.9453 0)" fill="#5CF2AC"/>
<rect width="18.8761" height="48.7939" transform="matrix(-0.707107 0.707107 0.707107 0.707107 13.3477 3.42773)" fill="#2A8C68"/>
<path d="M82.017 38.1455C83.6451 38.1455 84.9567 37.6846 85.9517 36.7628C87.0824 35.6837 87.6477 34.2111 87.6477 32.3452V29.3101H83.9165V32.3452C83.9165 33.177 83.7582 33.739 83.4416 34.0313C83.1476 34.3011 82.6727 34.436 82.017 34.436C81.3838 34.436 80.9202 34.3011 80.6262 34.0313C80.287 33.7165 80.1174 33.1545 80.1174 32.3452V19.8003C80.1174 18.991 80.287 18.4289 80.6262 18.1142C80.9202 17.8444 81.3838 17.7095 82.017 17.7095C82.6727 17.7095 83.1476 17.8444 83.4416 18.1142C83.7582 18.4064 83.9165 18.9685 83.9165 19.8003V21.8911H87.6477V19.8003C87.6477 17.9343 87.0824 16.4618 85.9517 15.3826C84.9567 14.4609 83.6451 14 82.017 14C80.434 14 79.1224 14.4609 78.0822 15.3826C76.9516 16.5067 76.3862 17.9793 76.3862 19.8003V32.3452C76.3862 34.1662 76.9516 35.6387 78.0822 36.7628C79.1224 37.6846 80.434 38.1455 82.017 38.1455Z" fill="black"/>
<path d="M97.7439 34.1325H93.47L92.7916 37.8757H88.9926L93.7414 14.2698H97.4726L102.221 37.8757H98.4223L97.7439 34.1325ZM97.0995 30.423L95.607 21.9586L94.1145 30.423H97.0995Z" fill="black"/>
<path d="M109.213 38.1455C110.841 38.1455 112.152 37.6846 113.147 36.7628C114.278 35.6837 114.843 34.2111 114.843 32.3452V29.3101H111.112V32.3452C111.112 33.177 110.954 33.739 110.637 34.0313C110.343 34.3011 109.868 34.436 109.213 34.436C108.579 34.436 108.116 34.3011 107.822 34.0313C107.483 33.7165 107.313 33.1545 107.313 32.3452V19.8003C107.313 18.991 107.483 18.4289 107.822 18.1142C108.116 17.8444 108.579 17.7095 109.213 17.7095C109.868 17.7095 110.343 17.8444 110.637 18.1142C110.954 18.4064 111.112 18.9685 111.112 19.8003V21.8911H114.843V19.8003C114.843 17.9343 114.278 16.4618 113.147 15.3826C112.152 14.4609 110.841 14 109.213 14C107.63 14 106.318 14.4609 105.278 15.3826C104.147 16.5067 103.582 17.9793 103.582 19.8003V32.3452C103.582 34.1662 104.147 35.6387 105.278 36.7628C106.318 37.6846 107.63 38.1455 109.213 38.1455Z" fill="black"/>
<path d="M122.496 38.1455C124.124 38.1455 125.436 37.6846 126.431 36.7628C127.561 35.6837 128.127 34.2111 128.127 32.3452V24.218H122.53V27.9275H124.395V32.3452C124.395 33.177 124.237 33.739 123.92 34.0313C123.626 34.3011 123.152 34.436 122.496 34.436C121.863 34.436 121.399 34.3011 121.105 34.0313C120.766 33.7165 120.596 33.1545 120.596 32.3452V19.8003C120.596 18.991 120.766 18.4289 121.105 18.1142C121.399 17.8444 121.863 17.7095 122.496 17.7095C123.152 17.7095 123.626 17.8444 123.92 18.1142C124.237 18.4064 124.395 18.9685 124.395 19.8003V21.8911H128.127V19.8003C128.127 17.9343 127.561 16.4618 126.431 15.3826C125.436 14.4609 124.124 14 122.496 14C120.913 14 119.601 14.4609 118.561 15.3826C117.43 16.5067 116.865 17.9793 116.865 19.8003V32.3452C116.865 34.1662 117.43 35.6387 118.561 36.7628C119.601 37.6846 120.913 38.1455 122.496 38.1455Z" fill="black"/>
</svg>
