<svg width="121" height="49" viewBox="0 0 121 49" fill="none" xmlns="http://www.w3.org/2000/svg">
<rect y="0.703487" width="15.6324" height="29.847" transform="matrix(-0.710708 0.703487 0.710708 0.703487 39.0264 0.208593)" fill="#5CF2AC" stroke="black"/>
<rect y="0.703487" width="17.1297" height="45.8645" transform="matrix(-0.710708 0.703487 0.710708 0.703487 12.3848 3.48594)" fill="#2A8C68" stroke="black"/>
<path d="M79.6389 37.657L79.6389 37.6571L79.6445 37.6522C80.8596 36.592 81.4518 35.1474 81.4518 33.3792V30.7024V30.2024H80.9518H77.3525H76.8525V30.7024V33.3792C76.8525 34.0788 76.7002 34.3754 76.5725 34.4837C76.4236 34.6084 76.1106 34.7233 75.5201 34.7233C74.9573 34.7233 74.6524 34.6106 74.5009 34.4842C74.3423 34.3488 74.1877 34.0393 74.1877 33.3792V22.315C74.1877 21.6548 74.3423 21.3453 74.501 21.21C74.6524 21.0835 74.9573 20.9709 75.5201 20.9709C76.1104 20.9709 76.4234 21.0857 76.5724 21.2103C76.7001 21.3186 76.8525 21.6152 76.8525 22.315V24.159V24.659H77.3525H80.9518H81.4518V24.159V22.315C81.4518 20.5468 80.8596 19.1022 79.6445 18.0419L79.6445 18.0419L79.6389 18.0371C78.568 17.1301 77.1787 16.6992 75.5201 16.6992C73.9003 16.6992 72.5178 17.1324 71.4097 18.0302L71.3986 18.0391L71.3881 18.0487C70.1831 19.144 69.5884 20.5821 69.5884 22.315V33.3792C69.5884 35.1121 70.1831 36.5502 71.3881 37.6455L71.3986 37.6551L71.4097 37.664C72.5178 38.5617 73.9003 38.995 75.5201 38.995C77.1787 38.995 78.568 38.5641 79.6389 37.657ZM85.9139 38.757H86.3245L86.4044 38.3542L86.9789 35.4556H90.2806L90.8552 38.3542L90.935 38.757H91.3456H95.0104H95.6324L95.4987 38.1496L90.9177 17.3297L90.8314 16.9372H90.4294H86.8301H86.4282L86.3418 17.3297L81.7608 38.1496L81.6272 38.757H82.2491H85.9139ZM105.873 37.657L105.873 37.6571L105.879 37.6522C107.094 36.592 107.686 35.1474 107.686 33.3792V30.7024V30.2024H107.186H103.587H103.087V30.7024V33.3792C103.087 34.0787 102.935 34.3754 102.807 34.4837C102.658 34.6084 102.345 34.7233 101.755 34.7233C101.192 34.7233 100.887 34.6106 100.735 34.4842C100.577 34.3488 100.422 34.0393 100.422 33.3792V22.315C100.422 21.6548 100.577 21.3453 100.735 21.21C100.887 21.0835 101.192 20.9709 101.755 20.9709C102.345 20.9709 102.658 21.0858 102.807 21.2104C102.935 21.3186 103.087 21.6152 103.087 22.315V24.159V24.659H103.587H107.186H107.686V24.159V22.315C107.686 20.5468 107.094 19.1022 105.879 18.0419L105.879 18.0419L105.873 18.0371C104.802 17.1301 103.413 16.6992 101.755 16.6992C100.135 16.6992 98.7522 17.1324 97.6441 18.0302L97.6331 18.0391L97.6226 18.0487C96.4176 19.144 95.8228 20.5821 95.8228 22.315V33.3792C95.8228 35.1121 96.4176 36.5502 97.6226 37.6455L97.6331 37.6551L97.6441 37.664C98.7522 38.5617 100.135 38.995 101.755 38.995C103.413 38.995 104.802 38.5641 105.873 37.657ZM118.687 37.657L118.687 37.6571L118.693 37.6522C119.908 36.592 120.5 35.1474 120.5 33.3792V26.2112V25.7112H120H114.601H114.101V26.2112V29.4829V29.9829H114.601H115.901V33.3792C115.901 34.0792 115.748 34.3758 115.62 34.4839C115.471 34.6085 115.158 34.7233 114.568 34.7233C114.005 34.7233 113.701 34.6107 113.549 34.4842C113.39 34.3489 113.236 34.0395 113.236 33.3792V22.315C113.236 21.6546 113.39 21.3452 113.549 21.2099C113.701 21.0835 114.006 20.9709 114.568 20.9709C115.159 20.9709 115.472 21.0858 115.621 21.2104C115.748 21.3186 115.901 21.6152 115.901 22.315V24.159V24.659H116.401H120H120.5V24.159V22.315C120.5 20.5468 119.908 19.1022 118.693 18.0419L118.693 18.0419L118.687 18.0371C117.616 17.1301 116.227 16.6992 114.568 16.6992C112.948 16.6992 111.566 17.1324 110.458 18.0302L110.447 18.0391L110.436 18.0487C109.231 19.144 108.636 20.5821 108.636 22.315V33.3792C108.636 35.1121 109.231 36.5502 110.436 37.6455L110.447 37.6551L110.458 37.664C111.566 38.5617 112.948 38.995 114.568 38.995C116.227 38.995 117.616 38.5641 118.687 37.657ZM87.7957 31.1839L88.6298 26.8589L89.4639 31.1839H87.7957Z" fill="white" stroke="black"/>
</svg>
