<svg width="81" height="73" viewBox="0 0 81 73" fill="none" xmlns="http://www.w3.org/2000/svg">
<path d="M50.8717 33.9746C54.8948 30.4852 57.4975 25.0909 57.4975 19.0235C57.4975 8.53059 49.7551 0 40.2475 0C30.7399 0 22.9975 8.53059 22.9975 19.0153C22.9975 25.0827 25.6002 30.4852 29.6233 33.9664C19.0236 38.6381 11.5029 50.0587 11.5029 63.3924V69.7308C11.5029 71.4796 12.792 72.9 14.3766 72.9H66.1184C67.7112 72.9 68.9921 71.4796 68.9921 69.7308V63.3924C68.9921 50.0587 61.4713 38.6463 50.8717 33.9746ZM28.7447 19.0235C28.7447 12.0282 33.9009 6.34663 40.2475 6.34663C46.5859 6.34663 51.7502 12.0364 51.7502 19.0235C51.7502 26.0187 46.5941 31.7003 40.2475 31.7003C33.9009 31.7003 28.7447 26.0105 28.7447 19.0235ZM63.2448 66.5698H17.2502V63.4006C17.2502 49.4183 27.5707 38.0387 40.2475 38.0387C52.9243 38.0387 63.2448 49.4183 63.2448 63.4006V66.5698Z" fill="#50BE95"/>
<path d="M18.7525 36.9057L19.3108 36.758C20.5178 36.3146 21.3716 35.1487 21.3716 33.7776C21.3716 32.4557 20.567 31.3227 19.434 30.8465C16.3551 29.3029 14.3682 25.9202 14.3682 22.1927C14.3682 17.9644 16.8888 14.4093 20.3535 13.1695C20.9611 11.1087 21.8725 9.19568 23.0466 7.51255C23.2518 7.14309 23.4653 6.77362 23.687 6.42057C23.4571 6.40415 23.2354 6.34668 22.9973 6.34668C15.0743 6.34668 8.62091 13.4569 8.62091 22.2009C8.62091 26.2158 10.0085 29.9762 12.3566 32.8334C4.87697 37.1028 0 45.6498 0 55.3216V60.2232C0 61.9721 1.28903 63.3924 2.87364 63.3924H8.02155C8.02155 61.2249 8.2186 59.0984 8.60449 57.054H5.74727V55.3216C5.74727 46.5612 11.0922 39.0404 18.7525 36.9057Z" fill="#343434"/>
<path d="M68.097 32.8256C70.4534 29.9684 71.841 26.208 71.841 22.1931C71.841 13.4491 65.3958 6.33887 57.4646 6.33887C57.2265 6.33887 57.0048 6.40455 56.7749 6.41276C56.9966 6.77402 57.2101 7.13527 57.4153 7.50474C58.5812 9.19608 59.5007 11.1009 60.1083 13.1617C63.5731 14.3933 66.0937 17.9566 66.0937 22.1849C66.0937 25.9124 64.1068 29.3033 61.0279 30.8387C59.8866 31.3149 59.0902 32.4479 59.0902 33.7698C59.0902 35.1409 59.9523 36.3068 61.151 36.7501L61.7093 36.8979C69.3696 39.0326 74.7146 46.5533 74.7146 55.3138V57.0626H71.8574C72.2351 59.1152 72.4403 61.2335 72.4403 63.4011H77.5882C79.181 63.4011 80.4619 61.9807 80.4619 60.2318V55.3302C80.4619 45.6502 75.5849 37.1032 68.097 32.8256Z" fill="#343434"/>
</svg>
