<svg width="81" height="81" viewBox="0 0 81 81" fill="none" xmlns="http://www.w3.org/2000/svg">
<path d="M44.4574 0V8.19329C62.281 10.3836 74.9077 26.5674 72.7153 44.3736C70.8476 59.1377 59.2359 70.8598 44.4574 72.6039V80.7161C66.7876 78.4852 83.0278 58.6915 80.7947 36.3831C78.9677 17.1167 63.6614 1.90636 44.4574 0ZM36.3373 0.121682C28.4203 0.892338 20.8686 3.9344 14.6973 9.04507L20.5032 15.0481C25.0504 11.3976 30.5315 9.04507 36.3373 8.23385V0.121682ZM8.97268 14.7641C3.89624 20.9186 0.772227 28.4457 0 36.3831H8.12007C8.89148 30.6234 11.1651 25.1477 14.7785 20.5643L8.97268 14.7641ZM54.6075 26.2429L34.7945 46.0366L26.1872 37.4377L21.8836 41.7371L34.7945 54.6355L58.9111 30.5423L54.6075 26.2429ZM0.0406003 44.4952C0.852608 52.4452 3.97884 59.9489 9.01328 66.1142L14.7785 60.314C11.1932 55.729 8.90753 50.2654 8.16067 44.4952H0.0406003ZM20.5032 66.2764L14.6973 71.8332C20.8474 76.9549 28.3767 80.1443 36.3373 81V72.8878C30.5615 72.1417 25.0927 69.8582 20.5032 66.2764Z" fill="url(#paint0_linear_1_653)"/>
<defs>
<linearGradient id="paint0_linear_1_653" x1="27.8761" y1="1.07223e-06" x2="52.4436" y2="81.0514" gradientUnits="userSpaceOnUse">
<stop stop-color="#2A8C86"/>
<stop offset="1" stop-color="#5CD7F2"/>
</linearGradient>
</defs>
</svg>
