<svg width="20" height="20" viewBox="0 0 20 20" fill="none" xmlns="http://www.w3.org/2000/svg">
<path d="M19.5667 6.03868C19.5216 5.01687 19.3563 4.31439 19.1196 3.70568C18.8753 3.05955 18.4996 2.48106 18.0073 2.00017C17.5263 1.51179 16.9439 1.1323 16.3051 0.891928C15.6928 0.655223 14.9938 0.489984 13.9718 0.444932C12.9422 0.396065 12.6153 0.384766 10.0039 0.384766C7.39245 0.384766 7.06558 0.396065 6.03976 0.441117C5.01776 0.486169 4.31514 0.651554 3.70646 0.888112C3.06006 1.1323 2.48146 1.50798 2.00048 2.00017C1.51201 2.48106 1.13259 3.06336 0.892024 3.70201C0.655274 4.31439 0.490004 5.01306 0.444944 6.03487C0.396067 7.06431 0.384766 7.39111 0.384766 10.0021C0.384766 12.613 0.396067 12.9398 0.441128 13.9654C0.486188 14.9872 0.651605 15.6897 0.888355 16.2984C1.13259 16.9446 1.51201 17.5231 2.00048 18.0039C2.48146 18.4923 3.06387 18.8718 3.70264 19.1122C4.31514 19.3489 5.01394 19.5141 6.03609 19.5592C7.06176 19.6044 7.38878 19.6155 10.0002 19.6155C12.6117 19.6155 12.9385 19.6044 13.9644 19.5592C14.9864 19.5141 15.689 19.3489 16.2977 19.1122C17.5903 18.6125 18.6123 17.5907 19.1121 16.2984C19.3487 15.6861 19.5141 14.9872 19.5592 13.9654C19.6042 12.9398 19.6155 12.613 19.6155 10.0021C19.6155 7.39111 19.6117 7.06431 19.5667 6.03868ZM17.8346 13.8903C17.7932 14.8295 17.6354 15.3366 17.5039 15.6748C17.1807 16.5125 16.5156 17.1775 15.6777 17.5006C15.3395 17.6321 14.8286 17.7898 13.8929 17.8311C12.8784 17.8763 12.5741 17.8874 10.0077 17.8874C7.44133 17.8874 7.13324 17.8763 6.1224 17.8311C5.18303 17.7898 4.67577 17.6321 4.3376 17.5006C3.92061 17.3465 3.54104 17.1023 3.23296 16.783C2.91357 16.4712 2.66934 16.0955 2.51522 15.6786C2.38371 15.3405 2.22593 14.8295 2.18468 13.8941C2.13948 12.8798 2.12832 12.5754 2.12832 10.0095C2.12832 7.44365 2.13948 7.13562 2.18468 6.12512C2.22593 5.18593 2.38371 4.67877 2.51522 4.34066C2.66934 3.9236 2.91357 3.54426 3.23677 3.23608C3.54853 2.91676 3.92427 2.67257 4.34141 2.51863C4.67959 2.38715 5.19066 2.22939 6.12621 2.18801C7.14073 2.14296 7.44514 2.13166 10.0114 2.13166C12.5816 2.13166 12.8858 2.14296 13.8967 2.18801C14.8361 2.22939 15.3433 2.38715 15.6815 2.51863C16.0985 2.67257 16.478 2.91676 16.7861 3.23608C17.1055 3.54792 17.3498 3.9236 17.5039 4.34066C17.6354 4.67877 17.7932 5.1896 17.8346 6.12512C17.8796 7.13944 17.8909 7.44365 17.8909 10.0095C17.8909 12.5754 17.8796 12.876 17.8346 13.8903Z" fill="white"/>
<path d="M10.0046 5.06152C7.27672 5.06152 5.06348 7.27419 5.06348 10.0017C5.06348 12.7291 7.27672 14.9418 10.0046 14.9418C12.7325 14.9418 14.9456 12.7291 14.9456 10.0017C14.9456 7.27419 12.7325 5.06152 10.0046 5.06152ZM10.0046 13.2062C8.23487 13.2062 6.7994 11.7711 6.7994 10.0017C6.7994 8.23217 8.23487 6.79711 10.0046 6.79711C11.7744 6.79711 13.2097 8.23217 13.2097 10.0017C13.2097 11.7711 11.7744 13.2062 10.0046 13.2062V13.2062Z" fill="white"/>
<path d="M16.294 4.86619C16.294 5.50307 15.7775 6.01948 15.1403 6.01948C14.5033 6.01948 13.9868 5.50307 13.9868 4.86619C13.9868 4.22915 14.5033 3.71289 15.1403 3.71289C15.7775 3.71289 16.294 4.22915 16.294 4.86619V4.86619Z" fill="white"/>
</svg>
