<svg width="76" height="76" viewBox="0 0 76 76" fill="none" xmlns="http://www.w3.org/2000/svg">
<path d="M75.6197 13.8366L62.1631 0.380205C61.6561 -0.126735 60.8351 -0.126735 60.3282 0.380205L36.3865 24.3206L21.9333 10.1003C21.9221 10.0891 21.9074 10.0813 21.8952 10.0709C21.8477 10.0276 21.7966 9.98872 21.7421 9.95239C21.7162 9.93509 21.6919 9.91605 21.6651 9.90048C21.6011 9.86415 21.5328 9.8356 21.4618 9.80965C21.4437 9.80359 21.4281 9.79234 21.4099 9.78629L1.83444 3.67013C1.37594 3.52739 0.871588 3.65023 0.529874 3.99108C0.188159 4.33278 0.06445 4.8354 0.208922 5.29563L6.32604 24.8699C6.36324 24.9885 6.42034 25.0975 6.48868 25.1995C6.51031 25.2324 6.53626 25.2592 6.56048 25.2895C6.59249 25.3293 6.61845 25.3726 6.65478 25.408L21.0933 39.6136L0.380211 60.3272C-0.126737 60.8342 -0.126737 61.6551 0.380211 62.1621L13.8377 75.6202C14.0808 75.8633 14.4113 76 14.7556 76C15.0999 76 15.4295 75.8633 15.6734 75.6202L36.6002 54.6938L53.532 71.1486C53.7482 71.3571 54.0199 71.4583 54.2976 71.4886C56.2613 73.3096 58.7944 74.3174 61.4883 74.3174C64.3189 74.3174 66.9808 73.2153 68.9818 71.2135C73.059 67.1363 73.1048 60.54 69.1349 56.3963C69.0717 56.1809 68.9593 55.9819 68.7949 55.8236L51.8139 39.4795L75.6205 15.6723C76.1266 15.1645 76.1266 14.3436 75.6197 13.8366ZM19.4185 11.8841L18.4487 15.1801L13.9277 16.5097C13.5046 16.6343 13.1733 16.9648 13.0487 17.3887L11.7199 21.9087L8.42305 22.8785L3.42536 6.88652L19.4185 11.8841ZM14.7547 72.8675L3.13209 61.2442L8.02164 56.3548L13.8325 62.1655C14.086 62.419 14.4182 62.5453 14.7504 62.5453C15.0826 62.5453 15.4148 62.419 15.6683 62.1655C16.1752 61.6586 16.1752 60.8376 15.6683 60.3307L9.85738 54.5199L14.6189 49.7585L20.4298 55.5693C20.6832 55.8227 21.0154 55.949 21.3476 55.949C21.6798 55.949 22.012 55.8227 22.2655 55.5693C22.7725 55.0623 22.7725 54.2413 22.2655 53.7344L16.4546 47.9236L22.9507 41.4277L34.7394 52.8849L14.7547 72.8675ZM67.1443 69.3778C64.2402 72.2801 59.6456 72.4782 56.507 69.979L67.7464 58.7398C70.2457 61.8792 70.0476 66.4754 67.1443 69.3778ZM54.4221 68.395L23.7613 38.5971L10.0477 25.1052L13.1318 24.1986C13.5548 24.0741 13.8862 23.7436 14.0107 23.3197L15.3404 18.7996L19.8614 17.47C20.2844 17.3454 20.6158 17.015 20.7403 16.5911L21.6591 13.469L49.036 40.4043L66.043 56.7752L54.4221 68.395ZM49.953 37.6698L38.2361 26.1407L44.8965 19.4804L50.7074 25.2912C50.9609 25.5447 51.2931 25.671 51.6253 25.671C51.9575 25.671 52.2897 25.5447 52.5431 25.2912C53.0501 24.7852 53.0501 23.9625 52.5431 23.4564L46.7323 17.6456L52.1426 12.2353L57.9535 18.0461C58.207 18.2996 58.5391 18.4259 58.8713 18.4259C59.2035 18.4259 59.5357 18.2996 59.7892 18.0461C60.2962 17.5401 60.2962 16.7174 59.7892 16.2113L53.9783 10.4005L61.2469 3.13205L72.8678 14.7545L49.953 37.6698Z" fill="url(#paint0_linear_19_175)"/>
<defs>
<linearGradient id="paint0_linear_19_175" x1="10.5" y1="1.47325e-06" x2="76" y2="76" gradientUnits="userSpaceOnUse">
<stop stop-color="#2A8C86"/>
<stop offset="1" stop-color="#5CD7F2"/>
</linearGradient>
</defs>
</svg>
