<svg width="81" height="74" viewBox="0 0 81 74" fill="none" xmlns="http://www.w3.org/2000/svg">
<path d="M51.2118 34.2018C55.2618 30.689 57.8819 25.2587 57.8819 19.1507C57.8819 8.58764 50.0877 0 40.5165 0C30.9453 0 23.1511 8.58764 23.1511 19.1424C23.1511 25.2505 25.7712 30.689 29.8212 34.1935C19.1507 38.8965 11.5797 50.3935 11.5797 63.8163V70.1971C11.5797 71.9576 12.8774 73.3875 14.4726 73.3875H66.5604C68.1639 73.3875 69.4533 71.9576 69.4533 70.1971V63.8163C69.4533 50.3935 61.8823 38.9047 51.2118 34.2018ZM28.9368 19.1507C28.9368 12.1087 34.1274 6.38907 40.5165 6.38907C46.8973 6.38907 52.0962 12.1169 52.0962 19.1507C52.0962 26.1927 46.9056 31.9123 40.5165 31.9123C34.1274 31.9123 28.9368 26.1845 28.9368 19.1507ZM63.6676 67.015H17.3654V63.8246C17.3654 49.7488 27.7549 38.2931 40.5165 38.2931C53.2781 38.2931 63.6676 49.7488 63.6676 63.8246V67.015Z" fill="url(#paint0_linear_1_636)"/>
<path d="M18.8779 37.1531L19.44 37.0043C20.655 36.558 21.5146 35.3843 21.5146 34.004C21.5146 32.6733 20.7046 31.5327 19.5639 31.0533C16.4645 29.4994 14.4643 26.0941 14.4643 22.3417C14.4643 18.085 17.0017 14.5062 20.4897 13.2581C21.1013 11.1835 22.0187 9.2577 23.2007 7.56332C23.4073 7.19138 23.6222 6.81944 23.8454 6.46404C23.6139 6.4475 23.3908 6.38965 23.1511 6.38965C15.1751 6.38965 8.67856 13.5474 8.67856 22.3499C8.67856 26.3917 10.0754 30.1772 12.4393 33.0535C4.90958 37.3514 0 45.9556 0 55.6921V60.6265C0 62.387 1.29765 63.8169 2.89285 63.8169H8.07519C8.07519 61.6349 8.27356 59.4942 8.66203 57.4361H5.78571V55.6921C5.78571 46.8731 11.1664 39.302 18.8779 37.1531Z" fill="url(#paint1_linear_1_636)"/>
<path d="M68.5526 33.0447C70.9248 30.1684 72.3216 26.3829 72.3216 22.3411C72.3216 13.5386 65.8333 6.38086 57.8491 6.38086C57.6094 6.38086 57.3862 6.44698 57.1548 6.45525C57.3779 6.81892 57.5928 7.18259 57.7995 7.55453C58.9731 9.25718 59.8989 11.1747 60.5105 13.2493C63.9984 14.4891 66.5359 18.0763 66.5359 22.3329C66.5359 26.0853 64.5357 29.4989 61.4362 31.0445C60.2873 31.5239 59.4856 32.6645 59.4856 33.9952C59.4856 35.3755 60.3535 36.5492 61.5602 36.9955L62.1222 37.1443C69.8337 39.2933 75.2145 46.8643 75.2145 55.6833V57.4438H72.3381C72.7183 59.5102 72.925 61.6426 72.925 63.8246H78.1073C79.7108 63.8246 81.0002 62.3947 81.0002 60.6342V55.6999C81.0002 45.9551 76.0906 37.3509 68.5526 33.0447Z" fill="url(#paint2_linear_1_636)"/>
<defs>
<linearGradient id="paint0_linear_1_636" x1="25.6707" y1="2.72142" x2="82.8845" y2="60.4324" gradientUnits="userSpaceOnUse">
<stop stop-color="#2A8C86"/>
<stop offset="1" stop-color="#5CD7F2"/>
</linearGradient>
<linearGradient id="paint1_linear_1_636" x1="5.80585" y1="8.51921" x2="42.9007" y2="28.2207" gradientUnits="userSpaceOnUse">
<stop stop-color="#2A8C86"/>
<stop offset="1" stop-color="#5CD7F2"/>
</linearGradient>
<linearGradient id="paint2_linear_1_636" x1="62.9606" y1="8.51104" x2="100.06" y2="28.2094" gradientUnits="userSpaceOnUse">
<stop stop-color="#2A8C86"/>
<stop offset="1" stop-color="#5CD7F2"/>
</linearGradient>
</defs>
</svg>
