<svg width="105" height="74" viewBox="0 0 105 74" fill="none" xmlns="http://www.w3.org/2000/svg">
<path d="M20.2549 58.0417C20.2549 57.0098 20.3507 55.8822 20.4464 54.8503C19.9783 54.8503 19.606 54.8503 19.1379 54.8503C9.94661 54.8503 3.76588 51.095 3.76588 48.5738C3.76588 40.1378 10.6062 33.2018 19.1379 33.2018C22.9783 33.2018 26.542 34.7017 29.2654 37.0421C30.2015 36.2017 31.1377 35.3507 32.1696 34.606C28.7973 31.4146 24.2016 29.4465 19.1379 29.4465C8.62749 29.4465 0 37.9783 0 48.5632C0 54.095 8.53174 58.5949 19.1273 58.5949C19.4996 58.5949 19.8826 58.5949 20.3507 58.5949C20.2549 58.414 20.2549 58.2226 20.2549 58.0417Z" fill="url(#paint0_linear_19_428)"/>
<path d="M84.6579 29.4465C79.4984 29.4465 74.7219 31.5103 71.2539 34.7869C72.2858 35.5422 73.222 36.3826 74.1581 37.223C76.9666 34.6911 80.6261 33.1911 84.7536 33.1911C93.4769 33.1911 100.509 40.3187 100.509 48.9461C100.509 51.2014 93.8492 55.4141 84.7536 55.4141C84.0941 55.4141 83.5303 55.4141 82.8813 55.3184C82.9771 56.1588 82.9771 57.0949 82.9771 57.946C82.9771 58.3183 82.9771 58.7013 82.9771 59.0736C83.5409 59.0736 84.1047 59.1693 84.7536 59.1693C94.9768 59.1693 104.253 54.2971 104.253 48.9461C104.253 38.1591 95.4449 29.4465 84.6579 29.4465Z" fill="url(#paint1_linear_19_428)"/>
<path d="M51.5627 73.0412C36.1907 73.0412 23.2441 66.4775 23.2441 58.701C23.2441 43.1375 35.9035 30.3824 51.5627 30.3824C67.1262 30.3824 79.8813 43.0418 79.8813 58.701C79.8813 66.0945 66.0944 73.0412 51.5627 73.0412ZM51.5627 34.1271C38.063 34.1271 26.9994 45.0949 26.9994 58.6904C26.9994 63.5626 37.6907 69.2859 51.5627 69.2859C65.5305 69.2859 76.1261 62.818 76.1261 58.6904C76.1261 45.1907 65.0625 34.1271 51.5627 34.1271Z" fill="url(#paint2_linear_19_428)"/>
<path d="M51.563 34.127C42.1908 34.127 34.4995 26.5314 34.4995 17.0635C34.4995 7.59559 42.0951 0 51.563 0C61.0309 0 68.6265 7.59559 68.6265 17.0635C68.6265 26.5314 60.9352 34.127 51.563 34.127ZM51.563 3.85099C44.2546 3.85099 38.2548 9.85087 38.2548 17.1592C38.2548 24.4676 44.2546 30.4781 51.563 30.4781C58.8714 30.4781 64.8712 24.4782 64.8712 17.1699C64.8712 9.86151 58.882 3.85099 51.563 3.85099Z" fill="url(#paint3_linear_19_428)"/>
<path d="M19.0318 33.2867C12.5638 33.2867 7.30859 28.0315 7.30859 21.5635C7.30859 15.0955 12.5638 9.84033 19.0318 9.84033C25.4997 9.84033 30.7549 15.0955 30.7549 21.5635C30.7549 28.0315 25.4997 33.2867 19.0318 33.2867ZM19.0318 13.4998C14.6276 13.4998 11.0638 17.0636 11.0638 21.4678C11.0638 25.8719 14.6276 29.4357 19.0318 29.4357C23.4359 29.4357 26.9997 25.8719 26.9997 21.4678C26.9997 17.0636 23.4359 13.4998 19.0318 13.4998Z" fill="url(#paint4_linear_19_428)"/>
<path d="M84.658 33.1908C77.9985 33.1908 72.6582 27.8505 72.6582 21.191C72.6582 14.5316 77.9985 9.19128 84.658 9.19128C91.3174 9.19128 96.6577 14.5316 96.6577 21.191C96.6577 27.8505 91.3174 33.1908 84.658 33.1908ZM84.658 12.9465C80.0623 12.9465 76.4028 16.7018 76.4028 21.2017C76.4028 25.7973 80.1581 29.4568 84.658 29.4568C89.2536 29.4568 92.9131 25.7016 92.9131 21.2017C92.9131 16.5954 89.2536 12.9465 84.658 12.9465Z" fill="url(#paint5_linear_19_428)"/>
<defs>
<linearGradient id="paint0_linear_19_428" x1="13" y1="6.00024" x2="42.1935" y2="59.9882" gradientUnits="userSpaceOnUse">
<stop stop-color="#2A8C86"/>
<stop offset="1" stop-color="#5CD7F2"/>
</linearGradient>
<linearGradient id="paint1_linear_19_428" x1="72.5" y1="0.000243685" x2="107.732" y2="55.5052" gradientUnits="userSpaceOnUse">
<stop stop-color="#2A8C86"/>
<stop offset="1" stop-color="#5CD7F2"/>
</linearGradient>
<linearGradient id="paint2_linear_19_428" x1="36.9999" y1="-4.50037" x2="78.9599" y2="70.7928" gradientUnits="userSpaceOnUse">
<stop stop-color="#2A8C86"/>
<stop offset="1" stop-color="#5CD7F2"/>
</linearGradient>
<linearGradient id="paint3_linear_19_428" x1="46.929" y1="-2.84349" x2="88.7328" y2="62.4703" gradientUnits="userSpaceOnUse">
<stop stop-color="#2A8C86"/>
<stop offset="1" stop-color="#5CD7F2"/>
</linearGradient>
<linearGradient id="paint4_linear_19_428" x1="9.50024" y1="4.99951" x2="44.1348" y2="62.3614" gradientUnits="userSpaceOnUse">
<stop stop-color="#2A8C86"/>
<stop offset="1" stop-color="#5CD7F2"/>
</linearGradient>
<linearGradient id="paint5_linear_19_428" x1="75.5001" y1="1.49988" x2="112.862" y2="52.1422" gradientUnits="userSpaceOnUse">
<stop stop-color="#2A8C86"/>
<stop offset="1" stop-color="#5CD7F2"/>
</linearGradient>
</defs>
</svg>
