<svg width="78" height="70" viewBox="0 0 78 70" fill="none" xmlns="http://www.w3.org/2000/svg">
<path d="M32.1486 62.6866H3.16216V17.7612H71.6757V23.5075C71.6757 23.9231 71.8423 24.3217 72.1388 24.6156C72.4353 24.9095 72.8374 25.0746 73.2568 25.0746C73.6761 25.0746 74.0782 24.9095 74.3747 24.6156C74.6713 24.3217 74.8378 23.9231 74.8378 23.5075V1.56716C74.8378 1.15153 74.6713 0.752913 74.3747 0.459013C74.0782 0.165112 73.6761 0 73.2568 0H1.58108C1.16175 0 0.759598 0.165112 0.463088 0.459013C0.166577 0.752913 0 1.15153 0 1.56716V64.2537C0 64.6694 0.166577 65.068 0.463088 65.3619C0.759598 65.6558 1.16175 65.8209 1.58108 65.8209H32.1486C32.568 65.8209 32.9701 65.6558 33.2666 65.3619C33.5632 65.068 33.7297 64.6694 33.7297 64.2537C33.7297 63.8381 33.5632 63.4395 33.2666 63.1456C32.9701 62.8517 32.568 62.6866 32.1486 62.6866ZM71.6757 3.13433V14.6269H3.16216V3.13433H71.6757Z" fill="url(#paint0_linear_19_185)"/>
<path d="M8.95946 10.4478H14.2297C14.6491 10.4478 15.0512 10.2826 15.3477 9.98875C15.6442 9.69485 15.8108 9.29624 15.8108 8.8806C15.8108 8.46496 15.6442 8.06635 15.3477 7.77245C15.0512 7.47854 14.6491 7.31343 14.2297 7.31343H8.95946C8.54013 7.31343 8.13798 7.47854 7.84147 7.77245C7.54496 8.06635 7.37838 8.46496 7.37838 8.8806C7.37838 9.29624 7.54496 9.69485 7.84147 9.98875C8.13798 10.2826 8.54013 10.4478 8.95946 10.4478Z" fill="url(#paint1_linear_19_185)"/>
<path d="M20.5541 10.4478H25.8243C26.2437 10.4478 26.6458 10.2826 26.9423 9.98875C27.2388 9.69485 27.4054 9.29624 27.4054 8.8806C27.4054 8.46496 27.2388 8.06635 26.9423 7.77245C26.6458 7.47854 26.2437 7.31343 25.8243 7.31343H20.5541C20.1347 7.31343 19.7326 7.47854 19.4361 7.77245C19.1396 8.06635 18.973 8.46496 18.973 8.8806C18.973 9.29624 19.1396 9.69485 19.4361 9.98875C19.7326 10.2826 20.1347 10.4478 20.5541 10.4478Z" fill="url(#paint2_linear_19_185)"/>
<path d="M57.973 41.791C56.3052 41.791 54.6749 42.2812 53.2882 43.1997C51.9015 44.1181 50.8207 45.4234 50.1824 46.9507C49.5442 48.478 49.3772 50.1585 49.7026 51.7799C50.0279 53.4012 50.831 54.8905 52.0103 56.0594C53.1896 57.2283 54.6922 58.0244 56.3279 58.3469C57.9636 58.6694 59.6591 58.5038 61.1999 57.8712C62.7407 57.2386 64.0577 56.1673 64.9843 54.7928C65.9109 53.4183 66.4054 51.8023 66.4054 50.1493C66.4054 47.9325 65.517 45.8066 63.9356 44.2391C62.3542 42.6716 60.2094 41.791 57.973 41.791ZM57.973 56C56.8055 56 55.6643 55.6569 54.6936 55.014C53.7229 54.3711 52.9664 53.4573 52.5196 52.3882C52.0728 51.3192 51.9559 50.1428 52.1837 49.0078C52.4114 47.8729 52.9736 46.8304 53.7991 46.0121C54.6246 45.1939 55.6764 44.6367 56.8214 44.4109C57.9664 44.1852 59.1533 44.301 60.2318 44.7439C61.3104 45.1867 62.2323 45.9366 62.8809 46.8988C63.5295 47.8609 63.8757 48.9921 63.8757 50.1493C63.8757 51.701 63.2538 53.1891 62.1468 54.2864C61.0398 55.3836 59.5385 56 57.973 56Z" fill="url(#paint3_linear_19_185)"/>
<path d="M76.9261 45.5938L72.1274 44.8704C71.8824 44.1248 71.5795 43.3992 71.2213 42.7L74.1073 38.8166C74.2971 38.5729 74.3893 38.2682 74.3661 37.9612C74.3428 37.6541 74.2058 37.3665 73.9815 37.1535L69.9881 33.1953C69.7733 32.9729 69.483 32.8371 69.1733 32.8141C68.8635 32.7911 68.5561 32.8824 68.3102 33.0706L64.4091 35.9228C63.7076 35.5859 62.9812 35.3024 62.2363 35.0746L61.5148 30.3348C61.4743 30.0364 61.3263 29.7626 61.0981 29.5639C60.8699 29.3652 60.5769 29.2551 60.2732 29.2537H54.6187C54.3175 29.2545 54.0265 29.3623 53.7987 29.5576C53.5709 29.7529 53.4213 30.0228 53.3771 30.3181L52.6556 35.0746C51.8975 35.3196 51.1598 35.6227 50.4492 35.981L46.5481 33.1288C46.3022 32.9406 45.9948 32.8493 45.685 32.8723C45.3753 32.8954 45.085 33.0311 44.8702 33.2535L40.8769 37.2117C40.6525 37.4247 40.5155 37.7123 40.4923 38.0194C40.4691 38.3264 40.5612 38.6311 40.751 38.8748L43.637 42.7582C43.2931 43.4396 43.0014 44.1456 42.7645 44.8704L37.949 45.5938C37.6541 45.6412 37.3858 45.791 37.1921 46.0165C36.9984 46.242 36.892 46.5284 36.8919 46.8245V52.4292C36.8927 52.7278 37.0014 53.0162 37.1985 53.242C37.3955 53.4678 37.6678 53.6161 37.9657 53.6599L42.8064 54.3834C43.0505 55.1146 43.3506 55.8263 43.7041 56.5121L40.793 60.4205C40.6032 60.6642 40.511 60.9689 40.5342 61.2759C40.5575 61.583 40.6944 61.8706 40.9188 62.0836L44.9122 66.0418C45.127 66.2642 45.4172 66.4 45.727 66.423C46.0367 66.446 46.3442 66.3547 46.59 66.1665L50.5498 63.2727C51.237 63.6164 51.9493 63.9082 52.6808 64.1458L53.419 68.9689C53.469 69.2512 53.6156 69.5079 53.8341 69.6957C54.0526 69.8835 54.3297 69.9909 54.6187 70H60.2732C60.5744 69.9992 60.8654 69.8914 61.0932 69.6961C61.321 69.5008 61.4706 69.231 61.5148 68.9356L62.2531 64.1126C62.9845 63.8749 63.6968 63.5831 64.384 63.2394L68.3438 66.1333C68.5897 66.3214 68.8971 66.4127 69.2068 66.3897C69.5166 66.3667 69.8068 66.2309 70.0217 66.0085L74.015 62.0503C74.2394 61.8374 74.3764 61.5497 74.3996 61.2427C74.4228 60.9356 74.3307 60.6309 74.1409 60.3872L71.2297 56.4789C71.5817 55.8037 71.8818 55.1033 72.1274 54.3834L76.9681 53.6599C77.2584 53.6073 77.5208 53.4552 77.7094 53.2302C77.898 53.0052 78.0009 52.7217 78 52.4292V46.8245C77.9992 46.5259 77.8904 46.2375 77.6934 46.0117C77.4964 45.7859 77.2241 45.6376 76.9261 45.5938ZM75.4832 51.3565L70.9277 52.0384C70.6869 52.075 70.462 52.1802 70.2803 52.3411C70.0986 52.502 69.968 52.7117 69.9042 52.9448C69.6119 54.013 69.1804 55.0389 68.6206 55.9966C68.4981 56.2066 68.4399 56.4474 68.4533 56.6896C68.4668 56.9318 68.5511 57.1649 68.6961 57.3603L71.4395 61.0441L68.973 63.4889L65.2397 60.7614C65.0425 60.6177 64.8074 60.534 64.563 60.5207C64.3187 60.5074 64.0757 60.5651 63.8638 60.6866C62.9023 61.2348 61.873 61.6568 60.8017 61.9422C60.5666 62.0054 60.355 62.1349 60.1927 62.315C60.0303 62.4951 59.9242 62.718 59.8873 62.9567L59.1909 67.5053H55.7009L55.0046 62.9567C54.9676 62.718 54.8615 62.4951 54.6992 62.315C54.5369 62.1349 54.3253 62.0054 54.0902 61.9422C53.019 61.6567 51.9896 61.2347 51.028 60.6866C50.8162 60.5651 50.5732 60.5074 50.3289 60.5207C50.0845 60.534 49.8493 60.6177 49.6522 60.7614L45.9189 63.4889L43.4524 61.0441L46.2041 57.3603C46.3491 57.1649 46.4335 56.9318 46.4469 56.6896C46.4603 56.4474 46.4022 56.2066 46.2796 55.9966C45.7198 55.0389 45.2883 54.013 44.9961 52.9448C44.9323 52.7117 44.8016 52.502 44.6199 52.3411C44.4383 52.1802 44.2134 52.075 43.9725 52.0384L39.4087 51.3565V47.8972L43.9474 47.2153C44.1908 47.1796 44.4182 47.0739 44.6016 46.9113C44.785 46.7487 44.9163 46.5364 44.9793 46.3006C45.2683 45.2208 45.6999 44.1835 46.2629 43.2156C46.3854 43.0056 46.4436 42.7648 46.4302 42.5225C46.4167 42.2803 46.3324 42.0472 46.1874 41.8518L43.4692 38.2013L45.9357 35.7565L49.6102 38.4424C49.8074 38.5862 50.0425 38.6698 50.2869 38.6831C50.5313 38.6964 50.7743 38.6388 50.9861 38.5173C51.9671 37.9524 53.0193 37.5189 54.1153 37.2284C54.3532 37.166 54.5674 37.0358 54.7314 36.854C54.8954 36.6722 55.0021 36.4468 55.0382 36.2055L55.7009 31.7484H59.1909L59.8705 36.2139C59.9066 36.4551 60.0132 36.6806 60.1773 36.8623C60.3413 37.0441 60.5555 37.1743 60.7933 37.2367C61.8893 37.5273 62.9416 37.9607 63.9226 38.5256C64.1341 38.6481 64.3772 38.7063 64.6218 38.693C64.8665 38.6797 65.1017 38.5955 65.2984 38.4507L68.973 35.7648L71.4395 38.2096L68.7213 41.8601C68.5763 42.0555 68.4919 42.2886 68.4785 42.5308C68.4651 42.7731 68.5232 43.0139 68.6458 43.2239C69.2087 44.1918 69.6403 45.2291 69.9294 46.309C69.9923 46.5447 70.1236 46.757 70.307 46.9196C70.4904 47.0822 70.7179 47.1879 70.9613 47.2237L75.4999 47.9055L75.4832 51.3565Z" fill="url(#paint4_linear_19_185)"/>
<defs>
<linearGradient id="paint0_linear_19_185" x1="11.5" y1="-8.13947e-07" x2="78" y2="70" gradientUnits="userSpaceOnUse">
<stop stop-color="#2A8C86"/>
<stop offset="1" stop-color="#5CD7F2"/>
</linearGradient>
<linearGradient id="paint1_linear_19_185" x1="11.5" y1="-8.13947e-07" x2="78" y2="70" gradientUnits="userSpaceOnUse">
<stop stop-color="#2A8C86"/>
<stop offset="1" stop-color="#5CD7F2"/>
</linearGradient>
<linearGradient id="paint2_linear_19_185" x1="11.5" y1="-8.13947e-07" x2="78" y2="70" gradientUnits="userSpaceOnUse">
<stop stop-color="#2A8C86"/>
<stop offset="1" stop-color="#5CD7F2"/>
</linearGradient>
<linearGradient id="paint3_linear_19_185" x1="11.5" y1="-8.13947e-07" x2="78" y2="70" gradientUnits="userSpaceOnUse">
<stop stop-color="#2A8C86"/>
<stop offset="1" stop-color="#5CD7F2"/>
</linearGradient>
<linearGradient id="paint4_linear_19_185" x1="11.5" y1="-8.13947e-07" x2="78" y2="70" gradientUnits="userSpaceOnUse">
<stop stop-color="#2A8C86"/>
<stop offset="1" stop-color="#5CD7F2"/>
</linearGradient>
</defs>
</svg>
