<svg width="74" height="74" viewBox="0 0 74 74" fill="none" xmlns="http://www.w3.org/2000/svg">
<path d="M68.025 33.4227C67.0452 33.4227 65.6036 33.8194 64.3017 35.7082C64.2455 35.7902 64.1974 35.8778 64.1602 35.9699C63.4508 37.7164 61.9965 38.7971 61.0566 38.7971C60.2818 38.7971 59.3927 37.8915 58.7032 36.4159V16.3611C58.7032 15.6051 58.0936 14.9932 57.3424 14.9932H37.5349C35.9228 14.2882 34.9321 13.3543 34.9321 12.5244C34.9321 11.7474 35.8329 10.8554 37.3017 10.1614C37.4569 10.1295 37.6093 10.0702 37.7499 9.98176C39.4401 8.92111 40.3709 7.50935 40.3709 6.00638C40.3709 2.58276 35.6334 0 29.3517 0C23.0728 0 18.3371 2.58276 18.3371 6.00638C18.3371 6.93935 18.6909 8.27269 20.293 9.51847C20.4427 9.75923 20.665 9.95075 20.9326 10.0602C22.6872 10.7798 23.7759 11.7647 23.7759 12.6302C23.7759 13.409 22.8741 14.301 21.4026 14.9932H1.36464C0.613458 14.9932 0.00380098 15.6051 0.00380098 16.3611V36.6959C-0.0125291 36.9129 0.0237599 37.1345 0.112668 37.3406C1.30658 40.0994 3.06842 41.6188 5.0743 41.6188C7.05568 41.6188 8.84655 40.0702 10.0241 37.3552C10.0323 37.3443 10.0396 37.3333 10.0468 37.3215C10.5612 36.5235 11.1382 36.0666 11.6308 36.0666C12.9572 36.0666 14.8841 39.3151 14.8841 44.4058C14.8841 49.4975 12.9572 52.746 11.6308 52.746C11.1627 52.746 10.6156 52.3301 10.1158 51.5987C8.92366 48.8673 7.1709 47.3643 5.17772 47.3643C3.12557 47.3643 1.27483 49.026 0.100875 51.9234C0.0210386 52.1204 -0.0107147 52.3274 0.00380098 52.5308V72.632C0.00380098 73.3881 0.613458 74 1.36464 74H21.6947C21.8816 74 22.0658 73.9617 22.2381 73.886C24.9843 72.6849 26.4976 70.9138 26.4976 68.9001C26.4976 66.943 25.0079 65.1683 22.3924 63.9827C22.3434 63.9389 22.2917 63.8969 22.2354 63.8596C21.7945 63.5622 21.0551 62.9667 21.0551 62.3119C21.0551 60.9786 24.2867 59.0424 29.3517 59.0424C34.414 59.0424 37.6456 60.9795 37.6456 62.3119C37.6456 62.7606 37.2782 63.275 36.624 63.7519C36.5705 63.7674 36.5188 63.7866 36.4671 63.8094C33.7218 65.0087 32.2104 66.7797 32.2104 68.7943C32.2104 70.8874 33.8216 72.7004 36.7474 73.8979C36.9107 73.9644 37.084 73.9991 37.26 73.9991H57.3424C58.0936 73.9991 58.7032 73.3871 58.7032 72.6311V52.6311C59.4063 51.0105 60.3353 50.0146 61.1591 50.0146C61.8504 50.0146 63.2276 50.9941 64.0459 52.8336C64.0822 52.9321 64.1294 53.0269 64.1874 53.1154C65.2271 54.6995 66.5898 55.5723 68.025 55.5723C71.4316 55.5723 74 50.8108 74 44.497C74 38.1833 71.4307 33.4227 68.025 33.4227ZM68.025 52.8363C67.5632 52.8363 67.0216 52.4277 66.5272 51.7109C65.3623 49.0962 63.1668 47.2795 61.1591 47.2795C59.1061 47.2795 57.2553 48.9421 56.0814 51.8404C56.0151 52.0046 55.9816 52.1797 55.9816 52.3557V71.264H37.5349C35.9228 70.5572 34.9321 69.6224 34.9321 68.7953C34.9321 68.0319 35.8003 67.1582 37.2201 66.4715C37.4106 66.4469 37.5993 66.3812 37.7708 66.2727C39.4455 65.2148 40.3664 63.8085 40.3664 62.3128C40.3664 58.8892 35.6306 56.3073 29.3508 56.3073C23.0692 56.3073 18.3325 58.8892 18.3325 62.3128C18.3325 63.254 18.6927 64.6074 20.342 65.8632C20.4899 66.0702 20.6949 66.2335 20.9326 66.332C22.6863 67.0506 23.775 68.0347 23.775 68.901C23.775 69.6781 22.8723 70.5709 21.4017 71.264H2.72458V52.7086C3.42677 51.0935 4.35487 50.1012 5.17681 50.1012C5.96882 50.1012 6.88059 51.0515 7.57643 52.5928C7.61272 52.7159 7.66625 52.8345 7.73701 52.9448C8.78758 54.5809 10.1702 55.4829 11.6308 55.4829C15.0375 55.4829 17.6058 50.7214 17.6058 44.4067C17.6058 38.093 15.0375 33.3315 11.6308 33.3315C10.2664 33.3315 8.97175 34.1149 7.95656 35.5467C7.81594 35.6799 7.70253 35.8431 7.62633 36.0301C6.91415 37.7912 5.93616 38.8846 5.0743 38.8846C4.30043 38.8846 3.41407 37.9818 2.72548 36.5098V17.731H21.6947C21.8807 17.731 22.0658 17.6927 22.2372 17.6179C24.9843 16.4195 26.4976 14.6484 26.4976 12.632C26.4976 10.6995 25.0424 8.943 22.4813 7.75559C22.4169 7.68901 22.3443 7.62882 22.2654 7.57592C21.4978 7.06338 21.0587 6.49248 21.0587 6.0073C21.0587 4.67396 24.2894 2.73689 29.3517 2.73689C34.4168 2.73689 37.6492 4.67396 37.6492 6.0073C37.6492 6.47697 37.2473 7.01687 36.5351 7.51208C36.5125 7.5212 36.4889 7.53032 36.4662 7.54036C33.7218 8.74145 32.2104 10.5125 32.2104 12.5253C32.2104 14.591 33.8643 16.4514 36.7483 17.6288C36.9107 17.6954 37.0849 17.7291 37.26 17.7291H55.9816V36.7095C55.9816 36.8974 56.0197 37.0834 56.095 37.2558C57.288 40.0137 59.0507 41.5322 61.0566 41.5322C63.2412 41.5322 65.5074 39.741 66.6161 37.1573C66.92 36.7405 67.4489 36.1578 68.0259 36.1578C69.3523 36.1578 71.2792 39.4063 71.2792 44.497C71.2792 49.5878 69.3505 52.8363 68.025 52.8363Z" fill="url(#paint0_linear_19_180)"/>
<defs>
<linearGradient id="paint0_linear_19_180" x1="9.01282" y1="2.8611" x2="74.3714" y2="74.0477" gradientUnits="userSpaceOnUse">
<stop stop-color="#2A8C86"/>
<stop offset="1" stop-color="#5CD7F2"/>
</linearGradient>
</defs>
</svg>
