<svg width="22" height="22" viewBox="0 0 22 22" fill="none" xmlns="http://www.w3.org/2000/svg">
<path d="M2.42238 16.5903L2.52247 16.2267L2.33338 15.9003C-1.51309 9.26152 3.3223 0.9 11.0411 0.9C13.5332 0.9 15.8855 1.7985 17.7495 3.41105L17.7456 3.42131L18.1609 3.83496C24.4271 10.077 20.011 20.8716 11.0968 20.912C10.9715 20.8988 10.8227 20.89 10.6523 20.8799C9.72524 20.8251 8.15713 20.7323 6.23478 19.6938L5.92291 19.5253L5.57991 19.6148L1.28143 20.7357L2.42238 16.5903Z" stroke="white" stroke-width="1.8"/>
<path d="M16.0696 12.7917L16.0613 12.8605C15.7854 12.723 14.4416 12.0657 14.1913 11.975C13.6294 11.7669 13.788 11.942 12.7091 13.1777C12.5487 13.3564 12.3892 13.3702 12.1169 13.2464C11.8419 13.1089 10.9592 12.8202 9.91422 11.8852C9.10023 11.1564 8.55391 10.2627 8.39258 9.98766C8.12399 9.52383 8.6859 9.45783 9.1974 8.48983C9.28906 8.29733 9.24231 8.14608 9.17448 8.00949C9.10573 7.87199 8.55849 6.52449 8.32933 5.98733C8.10933 5.45199 7.88291 5.51983 7.71333 5.51983C7.18534 5.47399 6.79943 5.48133 6.45935 5.83516C4.97987 7.46133 5.35295 9.13883 6.61885 10.9227C9.10665 14.1787 10.4321 14.7782 12.8558 15.6105C13.5103 15.8186 14.107 15.7892 14.5791 15.7214C15.1052 15.638 16.1988 15.0605 16.4271 14.4142C16.6608 13.768 16.6608 13.2317 16.5921 13.108C16.5242 12.9842 16.3446 12.9155 16.0696 12.7917Z" fill="#FAFAFA"/>
</svg>
